<?xml version="1.0" encoding="UTF-8" standalone="no"?>
<!DOCTYPE svg PUBLIC "-//W3C//DTD SVG 1.1//EN"
 "http://www.w3.org/Graphics/SVG/1.1/DTD/svg11.dtd">
<!-- Generated by graphviz version 2.43.0 (0)
 -->
<!-- Title: %3 Pages: 1 -->
<svg width="1006pt" height="491pt"
 viewBox="0.00 0.00 1005.87 490.84" xmlns="http://www.w3.org/2000/svg" xmlns:xlink="http://www.w3.org/1999/xlink">
<g id="graph0" class="graph" transform="scale(1 1) rotate(0) translate(4 486.84)">
<title>%3</title>
<polygon fill="white" stroke="transparent" points="-4,4 -4,-486.84 1001.87,-486.84 1001.87,4 -4,4"/>
<!-- 1 -->
<g id="node1" class="node">
<title>1</title>
<ellipse fill="none" stroke="black" cx="370.87" cy="-422.8" rx="60.09" ry="60.09"/>
<text text-anchor="middle" x="370.87" y="-426.6" font-family="Times,serif" font-size="14.00">PERSON</text>
<text text-anchor="middle" x="370.87" y="-411.6" font-family="Times,serif" font-size="14.00">Marie Curie</text>
</g>
<!-- 2 -->
<g id="node2" class="node">
<title>2</title>
<ellipse fill="none" stroke="black" cx="58.87" cy="-228.47" rx="58.73" ry="58.73"/>
<text text-anchor="middle" x="58.87" y="-232.27" font-family="Times,serif" font-size="14.00">PERSON</text>
<text text-anchor="middle" x="58.87" y="-217.27" font-family="Times,serif" font-size="14.00">Nobel Prize</text>
</g>
<!-- 1&#45;&gt;2 -->
<g id="edge1" class="edge">
<title>1&#45;&gt;2</title>
<path fill="none" stroke="black" d="M310.65,-419.94C250.29,-414.92 158.31,-398.23 100.87,-344.76 87.05,-331.9 77.77,-314.13 71.54,-296.39"/>
<polygon fill="black" stroke="black" points="74.77,-295.02 68.38,-286.57 68.11,-297.17 74.77,-295.02"/>
<text text-anchor="middle" x="139.37" y="-333.56" font-family="Times,serif" font-size="14.00">AWARDED</text>
<text text-anchor="middle" x="139.37" y="-318.56" font-family="Times,serif" font-size="14.00">won</text>
</g>
<!-- 3 -->
<g id="node3" class="node">
<title>3</title>
<ellipse fill="none" stroke="black" cx="184.87" cy="-228.47" rx="48.72" ry="48.72"/>
<text text-anchor="middle" x="184.87" y="-232.27" font-family="Times,serif" font-size="14.00">PERSON</text>
<text text-anchor="middle" x="184.87" y="-217.27" font-family="Times,serif" font-size="14.00">Polonium</text>
</g>
<!-- 1&#45;&gt;3 -->
<g id="edge2" class="edge">
<title>1&#45;&gt;3</title>
<path fill="none" stroke="black" d="M311.55,-412.22C271.48,-402.43 221.09,-382.97 193.87,-344.76 182.16,-328.33 178.26,-307.03 177.84,-287.23"/>
<polygon fill="black" stroke="black" points="181.34,-287.06 177.91,-277.04 174.34,-287.01 181.34,-287.06"/>
<text text-anchor="middle" x="244.37" y="-333.56" font-family="Times,serif" font-size="14.00">DISCOVERED</text>
<text text-anchor="middle" x="244.37" y="-318.56" font-family="Times,serif" font-size="14.00">identified</text>
</g>
<!-- 4 -->
<g id="node4" class="node">
<title>4</title>
<ellipse fill="none" stroke="black" cx="298.87" cy="-228.47" rx="47.19" ry="47.19"/>
<text text-anchor="middle" x="298.87" y="-232.27" font-family="Times,serif" font-size="14.00">PERSON</text>
<text text-anchor="middle" x="298.87" y="-217.27" font-family="Times,serif" font-size="14.00">Radium</text>
</g>
<!-- 1&#45;&gt;4 -->
<g id="edge3" class="edge">
<title>1&#45;&gt;4</title>
<path fill="none" stroke="black" d="M327.98,-380.65C319.16,-369.84 311,-357.59 305.87,-344.76 298.51,-326.37 295.79,-305.02 295.22,-285.72"/>
<polygon fill="black" stroke="black" points="298.71,-285.5 295.1,-275.54 291.71,-285.58 298.71,-285.5"/>
<text text-anchor="middle" x="356.37" y="-333.56" font-family="Times,serif" font-size="14.00">DISCOVERED</text>
<text text-anchor="middle" x="356.37" y="-318.56" font-family="Times,serif" font-size="14.00">identified</text>
</g>
<!-- 5 -->
<g id="node5" class="node">
<title>5</title>
<ellipse fill="none" stroke="black" cx="432.87" cy="-228.47" rx="68.07" ry="68.07"/>
<text text-anchor="middle" x="432.87" y="-232.27" font-family="Times,serif" font-size="14.00">PERSON</text>
<text text-anchor="middle" x="432.87" y="-217.27" font-family="Times,serif" font-size="14.00">United States</text>
</g>
<!-- 1&#45;&gt;5 -->
<g id="edge5" class="edge">
<title>1&#45;&gt;5</title>
<path fill="none" stroke="black" d="M400.3,-370.07C404.26,-361.78 407.95,-353.16 410.87,-344.76 415.12,-332.48 418.62,-319.17 421.48,-306.1"/>
<polygon fill="black" stroke="black" points="424.93,-306.68 423.54,-296.18 418.08,-305.26 424.93,-306.68"/>
<text text-anchor="middle" x="453.37" y="-333.56" font-family="Times,serif" font-size="14.00">VISITED</text>
<text text-anchor="middle" x="453.37" y="-318.56" font-family="Times,serif" font-size="14.00">first time</text>
</g>
<!-- 7 -->
<g id="node7" class="node">
<title>7</title>
<ellipse fill="none" stroke="black" cx="288.87" cy="-47.09" rx="47.19" ry="47.19"/>
<text text-anchor="middle" x="288.87" y="-50.89" font-family="Times,serif" font-size="14.00">PERSON</text>
<text text-anchor="middle" x="288.87" y="-35.89" font-family="Times,serif" font-size="14.00">Poland</text>
</g>
<!-- 1&#45;&gt;7 -->
<g id="edge6" class="edge">
<title>1&#45;&gt;7</title>
<path fill="none" stroke="black" d="M413.96,-380.8C422.17,-374.21 430.99,-367.88 439.87,-362.76 460.68,-350.74 473.55,-361.43 490.87,-344.76 528.72,-308.3 565.99,-153.79 533.87,-112.19 511.07,-82.66 410.87,-64.12 345.88,-54.97"/>
<polygon fill="black" stroke="black" points="346.15,-51.48 335.77,-53.58 345.2,-58.41 346.15,-51.48"/>
<text text-anchor="middle" x="668.87" y="-232.27" font-family="Times,serif" font-size="14.00">INTERPERSONALRELATIONSHIP</text>
<text text-anchor="middle" x="668.87" y="-217.27" font-family="Times,serif" font-size="14.00">named</text>
</g>
<!-- 8 -->
<g id="node8" class="node">
<title>8</title>
<ellipse fill="none" stroke="black" cx="868.87" cy="-228.47" rx="59.41" ry="59.41"/>
<text text-anchor="middle" x="868.87" y="-232.27" font-family="Times,serif" font-size="14.00">PERSON</text>
<text text-anchor="middle" x="868.87" y="-217.27" font-family="Times,serif" font-size="14.00">radio&#45;active</text>
</g>
<!-- 1&#45;&gt;8 -->
<g id="edge4" class="edge">
<title>1&#45;&gt;8</title>
<path fill="none" stroke="black" d="M412.82,-379.63C421.22,-373.08 430.4,-367.07 439.87,-362.76 489.75,-340.05 507.89,-354.27 561.87,-344.76 666.42,-326.33 701.38,-345.17 795.87,-296.76 804.72,-292.22 813.3,-286.3 821.27,-279.86"/>
<polygon fill="black" stroke="black" points="823.67,-282.42 829.03,-273.28 819.14,-277.08 823.67,-282.42"/>
<text text-anchor="middle" x="875.87" y="-333.56" font-family="Times,serif" font-size="14.00">INTERPERSONALRELATIONSHIP</text>
<text text-anchor="middle" x="875.87" y="-318.56" font-family="Times,serif" font-size="14.00">coined</text>
</g>
<!-- 3&#45;&gt;7 -->
<g id="edge7" class="edge">
<title>3&#45;&gt;7</title>
<path fill="none" stroke="black" d="M157.82,-187.48C149.06,-177.19 138.56,-167.08 126.87,-160.19 93.23,-140.35 65.49,-172.5 40.87,-142.19 32.46,-131.84 32.7,-122.73 40.87,-112.19 64.03,-82.27 165.96,-63.81 231.71,-54.79"/>
<polygon fill="black" stroke="black" points="232.49,-58.22 241.94,-53.42 231.56,-51.28 232.49,-58.22"/>
<text text-anchor="middle" x="162.87" y="-130.99" font-family="Times,serif" font-size="14.00">INTERPERSONALRELATIONSHIP</text>
<text text-anchor="middle" x="162.87" y="-115.99" font-family="Times,serif" font-size="14.00">named after</text>
</g>
<!-- 4&#45;&gt;7 -->
<g id="edge8" class="edge">
<title>4&#45;&gt;7</title>
<path fill="none" stroke="black" d="M293.21,-181.5C291.87,-168.79 290.61,-154.97 289.87,-142.19 289.16,-130.08 288.79,-117.09 288.6,-104.74"/>
<polygon fill="black" stroke="black" points="292.1,-104.51 288.49,-94.55 285.1,-104.58 292.1,-104.51"/>
<text text-anchor="middle" x="411.87" y="-130.99" font-family="Times,serif" font-size="14.00">INTERPERSONALRELATIONSHIP</text>
<text text-anchor="middle" x="411.87" y="-115.99" font-family="Times,serif" font-size="14.00">named after</text>
</g>
<!-- 6 -->
<g id="node6" class="node">
<title>6</title>
<ellipse fill="none" stroke="black" cx="495.87" cy="-422.8" rx="47.19" ry="47.19"/>
<text text-anchor="middle" x="495.87" y="-426.6" font-family="Times,serif" font-size="14.00">PERSON</text>
<text text-anchor="middle" x="495.87" y="-411.6" font-family="Times,serif" font-size="14.00">Paris</text>
</g>
</g>
</svg>
