<?xml version="1.0" encoding="UTF-8" standalone="no"?>
<!DOCTYPE svg PUBLIC "-//W3C//DTD SVG 1.1//EN"
 "http://www.w3.org/Graphics/SVG/1.1/DTD/svg11.dtd">
<!-- Generated by graphviz version 2.43.0 (0)
 -->
<!-- Title: %3 Pages: 1 -->
<svg width="532pt" height="532pt"
 viewBox="0.00 0.00 532.09 532.05" xmlns="http://www.w3.org/2000/svg" xmlns:xlink="http://www.w3.org/1999/xlink">
<g id="graph0" class="graph" transform="scale(1 1) rotate(0) translate(4 528.05)">
<title>%3</title>
<polygon fill="white" stroke="transparent" points="-4,4 -4,-528.05 528.09,-528.05 528.09,4 -4,4"/>
<!-- 0 -->
<g id="node1" class="node">
<title>0</title>
<ellipse fill="none" stroke="black" cx="318.76" cy="-464.01" rx="60.09" ry="60.09"/>
<text text-anchor="middle" x="318.76" y="-467.81" font-family="Times,serif" font-size="14.00">PERSON</text>
<text text-anchor="middle" x="318.76" y="-452.81" font-family="Times,serif" font-size="14.00">Marie Curie</text>
</g>
<!-- 1 -->
<g id="node2" class="node">
<title>1</title>
<ellipse fill="none" stroke="black" cx="74.76" cy="-276.74" rx="61.44" ry="61.44"/>
<text text-anchor="middle" x="74.76" y="-280.54" font-family="Times,serif" font-size="14.00">PERSON</text>
<text text-anchor="middle" x="74.76" y="-265.54" font-family="Times,serif" font-size="14.00">Pierre Curie</text>
</g>
<!-- 0&#45;&gt;1 -->
<g id="edge1" class="edge">
<title>0&#45;&gt;1</title>
<path fill="none" stroke="black" d="M259.61,-453.66C191.11,-441.48 84.57,-417.92 60.76,-385.96 51.84,-373.99 49.74,-359.13 51.1,-344.3"/>
<polygon fill="black" stroke="black" points="54.62,-344.46 52.56,-334.07 47.69,-343.48 54.62,-344.46"/>
<text text-anchor="middle" x="182.76" y="-374.76" font-family="Times,serif" font-size="14.00">INTERPERSONALRELATIONSHIP</text>
<text text-anchor="middle" x="182.76" y="-359.76" font-family="Times,serif" font-size="14.00">Met</text>
</g>
<!-- 2 -->
<g id="node3" class="node">
<title>2</title>
<ellipse fill="none" stroke="black" cx="272.76" cy="-74.76" rx="58.73" ry="58.73"/>
<text text-anchor="middle" x="272.76" y="-78.56" font-family="Times,serif" font-size="14.00">AWARD</text>
<text text-anchor="middle" x="272.76" y="-63.56" font-family="Times,serif" font-size="14.00">Nobel Prize</text>
</g>
<!-- 0&#45;&gt;2 -->
<g id="edge3" class="edge">
<title>0&#45;&gt;2</title>
<path fill="none" stroke="black" d="M313.14,-404.05C307.26,-344.34 297.43,-249.39 286.76,-167.52 285.72,-159.57 284.56,-151.24 283.36,-142.98"/>
<polygon fill="black" stroke="black" points="286.81,-142.36 281.88,-132.98 279.88,-143.38 286.81,-142.36"/>
<text text-anchor="middle" x="344.26" y="-280.54" font-family="Times,serif" font-size="14.00">AWARDED</text>
<text text-anchor="middle" x="344.26" y="-265.54" font-family="Times,serif" font-size="14.00">Awarded</text>
</g>
<!-- 4 -->
<g id="node5" class="node">
<title>4</title>
<ellipse fill="none" stroke="black" cx="468.76" cy="-276.74" rx="55.17" ry="55.17"/>
<text text-anchor="middle" x="468.76" y="-280.54" font-family="Times,serif" font-size="14.00">LOCATION</text>
<text text-anchor="middle" x="468.76" y="-265.54" font-family="Times,serif" font-size="14.00">France</text>
</g>
<!-- 0&#45;&gt;4 -->
<g id="edge5" class="edge">
<title>0&#45;&gt;4</title>
<path fill="none" stroke="black" d="M356.22,-416.73C378.02,-389.81 405.52,-355.85 427.88,-328.23"/>
<polygon fill="black" stroke="black" points="430.77,-330.23 434.34,-320.26 425.33,-325.83 430.77,-330.23"/>
<text text-anchor="middle" x="432.26" y="-374.76" font-family="Times,serif" font-size="14.00">VISITED</text>
<text text-anchor="middle" x="432.26" y="-359.76" font-family="Times,serif" font-size="14.00">Lived in</text>
</g>
<!-- 1&#45;&gt;2 -->
<g id="edge4" class="edge">
<title>1&#45;&gt;2</title>
<path fill="none" stroke="black" d="M125.66,-242.19C143.64,-229.24 163.43,-213.66 179.76,-197.52 199.64,-177.88 218.87,-153.84 234.63,-132.34"/>
<polygon fill="black" stroke="black" points="237.47,-134.39 240.5,-124.23 231.8,-130.28 237.47,-134.39"/>
<text text-anchor="middle" x="244.26" y="-186.32" font-family="Times,serif" font-size="14.00">AWARDED</text>
<text text-anchor="middle" x="244.26" y="-171.32" font-family="Times,serif" font-size="14.00">Awarded</text>
</g>
<!-- 3 -->
<g id="node4" class="node">
<title>3</title>
<ellipse fill="none" stroke="black" cx="74.76" cy="-74.76" rx="74.52" ry="74.52"/>
<text text-anchor="middle" x="74.76" y="-78.56" font-family="Times,serif" font-size="14.00">DISCOVERY</text>
<text text-anchor="middle" x="74.76" y="-63.56" font-family="Times,serif" font-size="14.00">Piezoelectricity</text>
</g>
<!-- 1&#45;&gt;3 -->
<g id="edge2" class="edge">
<title>1&#45;&gt;3</title>
<path fill="none" stroke="black" d="M74.76,-215.47C74.76,-197.92 74.76,-178.43 74.76,-159.7"/>
<polygon fill="black" stroke="black" points="78.26,-159.7 74.76,-149.7 71.26,-159.7 78.26,-159.7"/>
<text text-anchor="middle" x="125.26" y="-186.32" font-family="Times,serif" font-size="14.00">DISCOVERED</text>
<text text-anchor="middle" x="125.26" y="-171.32" font-family="Times,serif" font-size="14.00">Studied</text>
</g>
</g>
</svg>
