<?xml version="1.0" encoding="UTF-8" standalone="no"?>
<!DOCTYPE svg PUBLIC "-//W3C//DTD SVG 1.1//EN"
 "http://www.w3.org/Graphics/SVG/1.1/DTD/svg11.dtd">
<!-- Generated by graphviz version 2.43.0 (0)
 -->
<!-- Title: %3 Pages: 1 -->
<svg width="2250pt" height="543pt"
 viewBox="0.00 0.00 2250.37 542.65" xmlns="http://www.w3.org/2000/svg" xmlns:xlink="http://www.w3.org/1999/xlink">
<g id="graph0" class="graph" transform="scale(1 1) rotate(0) translate(4 538.65)">
<title>%3</title>
<polygon fill="white" stroke="transparent" points="-4,4 -4,-538.65 2246.37,-538.65 2246.37,4 -4,4"/>
<!-- 1 -->
<g id="node1" class="node">
<title>1</title>
<ellipse fill="none" stroke="black" cx="943.37" cy="-474.6" rx="60.09" ry="60.09"/>
<text text-anchor="middle" x="943.37" y="-478.4" font-family="Times,serif" font-size="14.00">PERSON</text>
<text text-anchor="middle" x="943.37" y="-463.4" font-family="Times,serif" font-size="14.00">Marie Curie</text>
</g>
<!-- 2 -->
<g id="node2" class="node">
<title>2</title>
<ellipse fill="none" stroke="black" cx="409.37" cy="-274.98" rx="61.44" ry="61.44"/>
<text text-anchor="middle" x="409.37" y="-278.78" font-family="Times,serif" font-size="14.00">PERSON</text>
<text text-anchor="middle" x="409.37" y="-263.78" font-family="Times,serif" font-size="14.00">Pierre Curie</text>
</g>
<!-- 1&#45;&gt;2 -->
<g id="edge1" class="edge">
<title>1&#45;&gt;2</title>
<path fill="none" stroke="black" d="M883.01,-473.19C687.03,-471.24 77.82,-460.08 19.37,-396.56 -74.16,-294.9 200.84,-278.14 337.39,-275.93"/>
<polygon fill="black" stroke="black" points="337.82,-279.43 347.77,-275.79 337.73,-272.43 337.82,-279.43"/>
<text text-anchor="middle" x="69.87" y="-385.36" font-family="Times,serif" font-size="14.00">DISCOVERED</text>
<text text-anchor="middle" x="69.87" y="-370.36" font-family="Times,serif" font-size="14.00">met</text>
</g>
<!-- 1&#45;&gt;2 -->
<g id="edge3" class="edge">
<title>1&#45;&gt;2</title>
<path fill="none" stroke="black" d="M883.13,-472.36C705.45,-468.09 192.92,-451.11 143.37,-396.56 81.72,-328.68 239.93,-296.53 338.12,-283.5"/>
<polygon fill="black" stroke="black" points="338.84,-286.94 348.31,-282.19 337.95,-279.99 338.84,-286.94"/>
<text text-anchor="middle" x="265.37" y="-385.36" font-family="Times,serif" font-size="14.00">INTERPERSONALRELATIONSHIP</text>
<text text-anchor="middle" x="265.37" y="-370.36" font-family="Times,serif" font-size="14.00">married</text>
</g>
<!-- 1&#45;&gt;2 -->
<g id="edge4" class="edge">
<title>1&#45;&gt;2</title>
<path fill="none" stroke="black" d="M883.07,-474.27C756.8,-474.24 471.25,-466.28 410.37,-396.56 398.06,-382.46 394.23,-363.49 394.45,-344.78"/>
<polygon fill="black" stroke="black" points="397.95,-344.91 394.94,-334.75 390.96,-344.57 397.95,-344.91"/>
<text text-anchor="middle" x="532.37" y="-385.36" font-family="Times,serif" font-size="14.00">INTERPERSONALRELATIONSHIP</text>
<text text-anchor="middle" x="532.37" y="-370.36" font-family="Times,serif" font-size="14.00">proposed</text>
</g>
<!-- 1&#45;&gt;2 -->
<g id="edge8" class="edge">
<title>1&#45;&gt;2</title>
<path fill="none" stroke="black" d="M883.58,-467.17C826.45,-458.65 740,-439.34 677.37,-396.56 663.5,-387.08 667.89,-376.53 654.37,-366.56 601.91,-327.87 531.13,-304.07 479.13,-290.64"/>
<polygon fill="black" stroke="black" points="479.87,-287.21 469.32,-288.17 478.16,-294 479.87,-287.21"/>
<text text-anchor="middle" x="799.37" y="-385.36" font-family="Times,serif" font-size="14.00">INTERPERSONALRELATIONSHIP</text>
<text text-anchor="middle" x="799.37" y="-370.36" font-family="Times,serif" font-size="14.00">married</text>
</g>
<!-- 1&#45;&gt;2 -->
<g id="edge9" class="edge">
<title>1&#45;&gt;2</title>
<path fill="none" stroke="black" d="M943.5,-414.47C940.59,-396.92 934.22,-379.06 921.37,-366.56 859.78,-306.64 606.59,-285.74 480.87,-278.97"/>
<polygon fill="black" stroke="black" points="480.75,-275.46 470.58,-278.43 480.38,-282.45 480.75,-275.46"/>
<text text-anchor="middle" x="1061.37" y="-385.36" font-family="Times,serif" font-size="14.00">INTERPERSONALRELATIONSHIP</text>
<text text-anchor="middle" x="1061.37" y="-370.36" font-family="Times,serif" font-size="14.00">proposed</text>
</g>
<!-- 4 -->
<g id="node4" class="node">
<title>4</title>
<ellipse fill="none" stroke="black" cx="1343.37" cy="-274.98" rx="70.1" ry="70.1"/>
<text text-anchor="middle" x="1343.37" y="-278.78" font-family="Times,serif" font-size="14.00">PERSON</text>
<text text-anchor="middle" x="1343.37" y="-263.78" font-family="Times,serif" font-size="14.00">Marie&#39;s family</text>
</g>
<!-- 1&#45;&gt;4 -->
<g id="edge5" class="edge">
<title>1&#45;&gt;4</title>
<path fill="none" stroke="black" d="M1002.78,-465.31C1055.39,-455.69 1132.3,-435.81 1188.37,-396.56 1202.14,-386.92 1199.18,-378.12 1211.37,-366.56 1230.42,-348.49 1253.38,-331.42 1274.78,-317.08"/>
<polygon fill="black" stroke="black" points="1276.79,-319.94 1283.2,-311.51 1272.93,-314.1 1276.79,-319.94"/>
<text text-anchor="middle" x="1333.37" y="-385.36" font-family="Times,serif" font-size="14.00">INTERPERSONALRELATIONSHIP</text>
<text text-anchor="middle" x="1333.37" y="-370.36" font-family="Times,serif" font-size="14.00">family</text>
</g>
<!-- 1&#45;&gt;4 -->
<g id="edge10" class="edge">
<title>1&#45;&gt;4</title>
<path fill="none" stroke="black" d="M1003.69,-473.9C1126.24,-473.09 1397.68,-463.58 1455.37,-396.56 1479.96,-367.99 1449.47,-336.84 1414.13,-313.36"/>
<polygon fill="black" stroke="black" points="1415.87,-310.32 1405.56,-307.87 1412.09,-316.21 1415.87,-310.32"/>
<text text-anchor="middle" x="1586.37" y="-385.36" font-family="Times,serif" font-size="14.00">INTERPERSONALRELATIONSHIP</text>
<text text-anchor="middle" x="1586.37" y="-370.36" font-family="Times,serif" font-size="14.00">family</text>
</g>
<!-- 5 -->
<g id="node5" class="node">
<title>5</title>
<ellipse fill="none" stroke="black" cx="1877.37" cy="-274.98" rx="73.67" ry="73.67"/>
<text text-anchor="middle" x="1877.37" y="-278.78" font-family="Times,serif" font-size="14.00">PERSON</text>
<text text-anchor="middle" x="1877.37" y="-263.78" font-family="Times,serif" font-size="14.00">Marie&#39;s friends</text>
</g>
<!-- 1&#45;&gt;5 -->
<g id="edge6" class="edge">
<title>1&#45;&gt;5</title>
<path fill="none" stroke="black" d="M1003.45,-472.42C1161.53,-468.53 1585.58,-453 1712.37,-396.56 1730.48,-388.5 1729.83,-378.86 1745.37,-366.56 1764.91,-351.09 1786.95,-335.35 1807.35,-321.42"/>
<polygon fill="black" stroke="black" points="1809.36,-324.28 1815.67,-315.77 1805.43,-318.49 1809.36,-324.28"/>
<text text-anchor="middle" x="1867.37" y="-385.36" font-family="Times,serif" font-size="14.00">INTERPERSONALRELATIONSHIP</text>
<text text-anchor="middle" x="1867.37" y="-370.36" font-family="Times,serif" font-size="14.00">friends</text>
</g>
<!-- 1&#45;&gt;5 -->
<g id="edge11" class="edge">
<title>1&#45;&gt;5</title>
<path fill="none" stroke="black" d="M1003.76,-473.82C1216.5,-473.97 1922.1,-468.97 1989.37,-396.56 2014.58,-369.43 1985.55,-338.86 1950.75,-315.29"/>
<polygon fill="black" stroke="black" points="1952.58,-312.3 1942.29,-309.76 1948.75,-318.16 1952.58,-312.3"/>
<text text-anchor="middle" x="2120.37" y="-385.36" font-family="Times,serif" font-size="14.00">INTERPERSONALRELATIONSHIP</text>
<text text-anchor="middle" x="2120.37" y="-370.36" font-family="Times,serif" font-size="14.00">friends</text>
</g>
<!-- 3 -->
<g id="node3" class="node">
<title>3</title>
<ellipse fill="none" stroke="black" cx="409.37" cy="-67.7" rx="67.89" ry="67.89"/>
<text text-anchor="middle" x="409.37" y="-71.5" font-family="Times,serif" font-size="14.00">PERSON</text>
<text text-anchor="middle" x="409.37" y="-56.5" font-family="Times,serif" font-size="14.00">Jacques Curie</text>
</g>
<!-- 2&#45;&gt;3 -->
<g id="edge2" class="edge">
<title>2&#45;&gt;3</title>
<path fill="none" stroke="black" d="M368.53,-228.63C358.69,-215.02 349.53,-199.42 344.37,-183.39 337.9,-163.26 344.56,-142.73 355.72,-124.7"/>
<polygon fill="black" stroke="black" points="358.85,-126.31 361.53,-116.06 353.04,-122.41 358.85,-126.31"/>
<text text-anchor="middle" x="399.37" y="-172.19" font-family="Times,serif" font-size="14.00">DISCOVERED</text>
<text text-anchor="middle" x="399.37" y="-157.19" font-family="Times,serif" font-size="14.00">piezoelectricity</text>
</g>
<!-- 2&#45;&gt;3 -->
<g id="edge7" class="edge">
<title>2&#45;&gt;3</title>
<path fill="none" stroke="black" d="M442.81,-223.44C453.04,-202.16 460.23,-176.92 454.37,-153.39 452.87,-147.35 450.84,-141.26 448.48,-135.28"/>
<polygon fill="black" stroke="black" points="451.65,-133.8 444.51,-125.97 445.21,-136.54 451.65,-133.8"/>
<text text-anchor="middle" x="512.37" y="-172.19" font-family="Times,serif" font-size="14.00">DISCOVERED</text>
<text text-anchor="middle" x="512.37" y="-157.19" font-family="Times,serif" font-size="14.00">piezoelectricity</text>
</g>
</g>
</svg>
