<?xml version="1.0" encoding="UTF-8" standalone="no"?>
<!DOCTYPE svg PUBLIC "-//W3C//DTD SVG 1.1//EN"
 "http://www.w3.org/Graphics/SVG/1.1/DTD/svg11.dtd">
<!-- Generated by graphviz version 2.43.0 (0)
 -->
<!-- Title: %3 Pages: 1 -->
<svg width="606pt" height="532pt"
 viewBox="0.00 0.00 605.76 532.05" xmlns="http://www.w3.org/2000/svg" xmlns:xlink="http://www.w3.org/1999/xlink">
<g id="graph0" class="graph" transform="scale(1 1) rotate(0) translate(4 528.05)">
<title>%3</title>
<polygon fill="white" stroke="transparent" points="-4,4 -4,-528.05 601.76,-528.05 601.76,4 -4,4"/>
<!-- 0 -->
<g id="node1" class="node">
<title>0</title>
<ellipse fill="none" stroke="black" cx="277.76" cy="-464.01" rx="60.09" ry="60.09"/>
<text text-anchor="middle" x="277.76" y="-467.81" font-family="Times,serif" font-size="14.00">PERSON</text>
<text text-anchor="middle" x="277.76" y="-452.81" font-family="Times,serif" font-size="14.00">Marie Curie</text>
</g>
<!-- 1 -->
<g id="node2" class="node">
<title>1</title>
<ellipse fill="none" stroke="black" cx="180.76" cy="-276.74" rx="61.44" ry="61.44"/>
<text text-anchor="middle" x="180.76" y="-280.54" font-family="Times,serif" font-size="14.00">PERSON</text>
<text text-anchor="middle" x="180.76" y="-265.54" font-family="Times,serif" font-size="14.00">Pierre Curie</text>
</g>
<!-- 0&#45;&gt;1 -->
<g id="edge1" class="edge">
<title>0&#45;&gt;1</title>
<path fill="none" stroke="black" d="M226.89,-431.94C211.25,-419.67 195.8,-404.12 186.76,-385.96 180.95,-374.28 177.84,-360.99 176.41,-347.82"/>
<polygon fill="black" stroke="black" points="179.89,-347.49 175.62,-337.8 172.91,-348.04 179.89,-347.49"/>
<text text-anchor="middle" x="225.26" y="-374.76" font-family="Times,serif" font-size="14.00">AWARDED</text>
<text text-anchor="middle" x="225.26" y="-359.76" font-family="Times,serif" font-size="14.00">Met</text>
</g>
<!-- 2 -->
<g id="node3" class="node">
<title>2</title>
<ellipse fill="none" stroke="black" cx="251.76" cy="-74.76" rx="58.73" ry="58.73"/>
<text text-anchor="middle" x="251.76" y="-78.56" font-family="Times,serif" font-size="14.00">AWARD</text>
<text text-anchor="middle" x="251.76" y="-63.56" font-family="Times,serif" font-size="14.00">Nobel Prize</text>
</g>
<!-- 0&#45;&gt;2 -->
<g id="edge3" class="edge">
<title>0&#45;&gt;2</title>
<path fill="none" stroke="black" d="M276.39,-403.76C274.68,-344.03 271.03,-249.24 263.76,-167.52 263.07,-159.76 262.21,-151.64 261.27,-143.58"/>
<polygon fill="black" stroke="black" points="264.72,-142.95 260.04,-133.44 257.77,-143.79 264.72,-142.95"/>
<text text-anchor="middle" x="306.76" y="-280.54" font-family="Times,serif" font-size="14.00">VISITED</text>
<text text-anchor="middle" x="306.76" y="-265.54" font-family="Times,serif" font-size="14.00">Awarded</text>
</g>
<!-- 4 -->
<g id="node5" class="node">
<title>4</title>
<ellipse fill="none" stroke="black" cx="414.76" cy="-276.74" rx="55.17" ry="55.17"/>
<text text-anchor="middle" x="414.76" y="-280.54" font-family="Times,serif" font-size="14.00">LOCATION</text>
<text text-anchor="middle" x="414.76" y="-265.54" font-family="Times,serif" font-size="14.00">France</text>
</g>
<!-- 0&#45;&gt;4 -->
<g id="edge5" class="edge">
<title>0&#45;&gt;4</title>
<path fill="none" stroke="black" d="M313.04,-415.3C332.37,-389.16 356.35,-356.73 376.17,-329.92"/>
<polygon fill="black" stroke="black" points="379.05,-331.92 382.18,-321.8 373.42,-327.75 379.05,-331.92"/>
<text text-anchor="middle" x="475.76" y="-374.76" font-family="Times,serif" font-size="14.00">INTERPERSONALRELATIONSHIP</text>
<text text-anchor="middle" x="475.76" y="-359.76" font-family="Times,serif" font-size="14.00">Lived in</text>
</g>
<!-- 1&#45;&gt;2 -->
<g id="edge4" class="edge">
<title>1&#45;&gt;2</title>
<path fill="none" stroke="black" d="M187.53,-215.82C190.35,-199.84 194.28,-182.78 199.76,-167.52 203.82,-156.21 209.22,-144.67 215,-133.76"/>
<polygon fill="black" stroke="black" points="218.19,-135.21 219.92,-124.76 212.05,-131.85 218.19,-135.21"/>
<text text-anchor="middle" x="231.76" y="-186.32" font-family="Times,serif" font-size="14.00">VISITED</text>
<text text-anchor="middle" x="231.76" y="-171.32" font-family="Times,serif" font-size="14.00">Awarded</text>
</g>
<!-- 3 -->
<g id="node4" class="node">
<title>3</title>
<ellipse fill="none" stroke="black" cx="74.76" cy="-74.76" rx="74.52" ry="74.52"/>
<text text-anchor="middle" x="74.76" y="-78.56" font-family="Times,serif" font-size="14.00">DISCOVERY</text>
<text text-anchor="middle" x="74.76" y="-63.56" font-family="Times,serif" font-size="14.00">Piezoelectricity</text>
</g>
<!-- 1&#45;&gt;3 -->
<g id="edge2" class="edge">
<title>1&#45;&gt;3</title>
<path fill="none" stroke="black" d="M128.68,-244.14C112.57,-231.67 96.51,-215.9 86.76,-197.52 80.62,-185.93 76.74,-172.85 74.39,-159.66"/>
<polygon fill="black" stroke="black" points="77.82,-158.96 72.88,-149.59 70.9,-159.99 77.82,-158.96"/>
<text text-anchor="middle" x="137.26" y="-186.32" font-family="Times,serif" font-size="14.00">DISCOVERED</text>
<text text-anchor="middle" x="137.26" y="-171.32" font-family="Times,serif" font-size="14.00">Studied</text>
</g>
</g>
</svg>
