<?xml version="1.0" encoding="UTF-8" standalone="no"?>
<!DOCTYPE svg PUBLIC "-//W3C//DTD SVG 1.1//EN"
 "http://www.w3.org/Graphics/SVG/1.1/DTD/svg11.dtd">
<!-- Generated by graphviz version 2.43.0 (0)
 -->
<!-- Title: %3 Pages: 1 -->
<svg width="545pt" height="675pt"
 viewBox="0.00 0.00 545.04 674.51" xmlns="http://www.w3.org/2000/svg" xmlns:xlink="http://www.w3.org/1999/xlink">
<g id="graph0" class="graph" transform="scale(1 1) rotate(0) translate(4 670.51)">
<title>%3</title>
<polygon fill="white" stroke="transparent" points="-4,4 -4,-670.51 541.04,-670.51 541.04,4 -4,4"/>
<!-- 0 -->
<g id="node1" class="node">
<title>0</title>
<ellipse fill="none" stroke="black" cx="158.04" cy="-520.52" rx="145.98" ry="145.98"/>
<text text-anchor="middle" x="158.04" y="-524.32" font-family="Times,serif" font-size="14.00">DISCOVERY</text>
<text text-anchor="middle" x="158.04" y="-509.32" font-family="Times,serif" font-size="14.00">Polonium and Radium Discovery</text>
</g>
<!-- 1 -->
<g id="node2" class="node">
<title>1</title>
<ellipse fill="none" stroke="black" cx="60.04" cy="-248.49" rx="60.09" ry="60.09"/>
<text text-anchor="middle" x="60.04" y="-252.29" font-family="Times,serif" font-size="14.00">PERSON</text>
<text text-anchor="middle" x="60.04" y="-237.29" font-family="Times,serif" font-size="14.00">Marie Curie</text>
</g>
<!-- 0&#45;&gt;1 -->
<g id="edge1" class="edge">
<title>0&#45;&gt;1</title>
<path fill="none" stroke="black" d="M108.47,-382.92C99.86,-359.2 91.28,-335.55 83.78,-314.9"/>
<polygon fill="black" stroke="black" points="87.01,-313.52 80.31,-305.32 80.43,-315.91 87.01,-313.52"/>
<text text-anchor="middle" x="155.54" y="-345.33" font-family="Times,serif" font-size="14.00">DISCOVERED</text>
<text text-anchor="middle" x="155.54" y="-330.33" font-family="Times,serif" font-size="14.00">Made Discovery</text>
</g>
<!-- 2 -->
<g id="node3" class="node">
<title>2</title>
<ellipse fill="none" stroke="black" cx="157.04" cy="-61.22" rx="61.44" ry="61.44"/>
<text text-anchor="middle" x="157.04" y="-65.02" font-family="Times,serif" font-size="14.00">PERSON</text>
<text text-anchor="middle" x="157.04" y="-50.02" font-family="Times,serif" font-size="14.00">Pierre Curie</text>
</g>
<!-- 0&#45;&gt;2 -->
<g id="edge2" class="edge">
<title>0&#45;&gt;2</title>
<path fill="none" stroke="black" d="M240.52,-399.59C282.53,-322.6 316.48,-222.11 273.04,-140.44 261.87,-119.43 242.25,-103.04 222.29,-90.81"/>
<polygon fill="black" stroke="black" points="223.84,-87.66 213.43,-85.66 220.32,-93.71 223.84,-87.66"/>
<text text-anchor="middle" x="415.04" y="-252.29" font-family="Times,serif" font-size="14.00">INTERPERSONALRELATIONSHIP</text>
<text text-anchor="middle" x="415.04" y="-237.29" font-family="Times,serif" font-size="14.00">Married</text>
</g>
<!-- 1&#45;&gt;2 -->
<g id="edge3" class="edge">
<title>1&#45;&gt;2</title>
<path fill="none" stroke="black" d="M29.41,-196.57C22.35,-178.14 19.39,-157.65 29.04,-140.44 42.49,-116.47 66.59,-98.97 90.29,-86.68"/>
<polygon fill="black" stroke="black" points="91.91,-89.79 99.33,-82.23 88.81,-83.51 91.91,-89.79"/>
<text text-anchor="middle" x="151.04" y="-159.24" font-family="Times,serif" font-size="14.00">INTERPERSONALRELATIONSHIP</text>
<text text-anchor="middle" x="151.04" y="-144.24" font-family="Times,serif" font-size="14.00">Spouse</text>
</g>
</g>
</svg>
