<?xml version="1.0" encoding="UTF-8" standalone="no"?>
<!DOCTYPE svg PUBLIC "-//W3C//DTD SVG 1.1//EN"
 "http://www.w3.org/Graphics/SVG/1.1/DTD/svg11.dtd">
<!-- Generated by graphviz version 2.43.0 (0)
 -->
<!-- Title: %3 Pages: 1 -->
<svg width="906pt" height="625pt"
 viewBox="0.00 0.00 906.10 625.06" xmlns="http://www.w3.org/2000/svg" xmlns:xlink="http://www.w3.org/1999/xlink">
<g id="graph0" class="graph" transform="scale(1 1) rotate(0) translate(4 621.06)">
<title>%3</title>
<polygon fill="white" stroke="transparent" points="-4,4 -4,-621.06 902.1,-621.06 902.1,4 -4,4"/>
<!-- 0 -->
<g id="node1" class="node">
<title>0</title>
<ellipse fill="none" stroke="black" cx="397.22" cy="-557.01" rx="60.09" ry="60.09"/>
<text text-anchor="middle" x="397.22" y="-560.81" font-family="Times,serif" font-size="14.00">PERSON</text>
<text text-anchor="middle" x="397.22" y="-545.81" font-family="Times,serif" font-size="14.00">Marie Curie</text>
</g>
<!-- 1 -->
<g id="node2" class="node">
<title>1</title>
<ellipse fill="none" stroke="black" cx="61.22" cy="-352.09" rx="61.44" ry="61.44"/>
<text text-anchor="middle" x="61.22" y="-355.89" font-family="Times,serif" font-size="14.00">PERSON</text>
<text text-anchor="middle" x="61.22" y="-340.89" font-family="Times,serif" font-size="14.00">Pierre Curie</text>
</g>
<!-- 0&#45;&gt;1 -->
<g id="edge4" class="edge">
<title>0&#45;&gt;1</title>
<path fill="none" stroke="black" d="M337.04,-553.01C239.03,-546.71 51.74,-528.37 11.22,-478.97 -5.71,-458.32 2.21,-431.23 16.28,-407.46"/>
<polygon fill="black" stroke="black" points="19.32,-409.2 21.7,-398.88 13.4,-405.46 19.32,-409.2"/>
<text text-anchor="middle" x="133.22" y="-467.77" font-family="Times,serif" font-size="14.00">INTERPERSONALRELATIONSHIP</text>
<text text-anchor="middle" x="133.22" y="-452.77" font-family="Times,serif" font-size="14.00">Married</text>
</g>
<!-- 3 -->
<g id="node4" class="node">
<title>3</title>
<ellipse fill="none" stroke="black" cx="268.22" cy="-352.09" rx="68.75" ry="68.75"/>
<text text-anchor="middle" x="268.22" y="-355.89" font-family="Times,serif" font-size="14.00">PERSON</text>
<text text-anchor="middle" x="268.22" y="-340.89" font-family="Times,serif" font-size="14.00">Paul Langevin</text>
</g>
<!-- 0&#45;&gt;3 -->
<g id="edge5" class="edge">
<title>0&#45;&gt;3</title>
<path fill="none" stroke="black" d="M340.62,-536.93C313.98,-524.78 284.71,-506.12 269.22,-478.97 260.92,-464.43 257.5,-447.32 256.78,-430.48"/>
<polygon fill="black" stroke="black" points="260.28,-430.02 256.66,-420.06 253.28,-430.1 260.28,-430.02"/>
<text text-anchor="middle" x="391.22" y="-467.77" font-family="Times,serif" font-size="14.00">INTERPERSONALRELATIONSHIP</text>
<text text-anchor="middle" x="391.22" y="-452.77" font-family="Times,serif" font-size="14.00">Affair Rumors</text>
</g>
<!-- 4 -->
<g id="node5" class="node">
<title>4</title>
<ellipse fill="none" stroke="black" cx="583.22" cy="-103.6" rx="103.71" ry="103.71"/>
<text text-anchor="middle" x="583.22" y="-107.4" font-family="Times,serif" font-size="14.00">AWARD</text>
<text text-anchor="middle" x="583.22" y="-92.4" font-family="Times,serif" font-size="14.00">Nobel Prize in Physics</text>
</g>
<!-- 0&#45;&gt;4 -->
<g id="edge1" class="edge">
<title>0&#45;&gt;4</title>
<path fill="none" stroke="black" d="M452.09,-532.25C474.63,-519.69 498.78,-502.02 513.22,-478.97 562.24,-400.77 523.82,-363.85 541.22,-273.21 544.92,-253.95 549.45,-233.6 554.15,-213.95"/>
<polygon fill="black" stroke="black" points="557.59,-214.6 556.54,-204.06 550.79,-212.96 557.59,-214.6"/>
<text text-anchor="middle" x="579.72" y="-355.89" font-family="Times,serif" font-size="14.00">AWARDED</text>
<text text-anchor="middle" x="579.72" y="-340.89" font-family="Times,serif" font-size="14.00">Received</text>
</g>
<!-- 0&#45;&gt;4 -->
<g id="edge6" class="edge">
<title>0&#45;&gt;4</title>
<path fill="none" stroke="black" d="M455.22,-541.23C508.23,-524.3 583.48,-490.83 618.22,-430.97 656.86,-364.38 644.97,-277.18 625.12,-209.66"/>
<polygon fill="black" stroke="black" points="628.39,-208.4 622.14,-199.85 621.7,-210.43 628.39,-208.4"/>
<text text-anchor="middle" x="684.22" y="-355.89" font-family="Times,serif" font-size="14.00">VISITED</text>
<text text-anchor="middle" x="684.22" y="-340.89" font-family="Times,serif" font-size="14.00">Awarded in</text>
</g>
<!-- 1&#45;&gt;4 -->
<g id="edge2" class="edge">
<title>1&#45;&gt;4</title>
<path fill="none" stroke="black" d="M112.39,-317.97C135.7,-303.46 163.92,-286.71 190.22,-273.21 284.95,-224.59 396.89,-177.53 477.02,-145.54"/>
<polygon fill="black" stroke="black" points="478.63,-148.66 486.63,-141.71 476.04,-142.16 478.63,-148.66"/>
<text text-anchor="middle" x="323.72" y="-244.01" font-family="Times,serif" font-size="14.00">AWARDED</text>
<text text-anchor="middle" x="323.72" y="-229.01" font-family="Times,serif" font-size="14.00">Received</text>
</g>
<!-- 2 -->
<g id="node3" class="node">
<title>2</title>
<ellipse fill="none" stroke="black" cx="819.22" cy="-352.09" rx="78.76" ry="78.76"/>
<text text-anchor="middle" x="819.22" y="-355.89" font-family="Times,serif" font-size="14.00">PERSON</text>
<text text-anchor="middle" x="819.22" y="-340.89" font-family="Times,serif" font-size="14.00">Henri Becquerel</text>
</g>
<!-- 2&#45;&gt;4 -->
<g id="edge3" class="edge">
<title>2&#45;&gt;4</title>
<path fill="none" stroke="black" d="M765.08,-294.54C734.46,-262.56 695.63,-222.01 661.72,-186.6"/>
<polygon fill="black" stroke="black" points="664.01,-183.92 654.57,-179.12 658.96,-188.77 664.01,-183.92"/>
<text text-anchor="middle" x="766.22" y="-244.01" font-family="Times,serif" font-size="14.00">AWARDED</text>
<text text-anchor="middle" x="766.22" y="-229.01" font-family="Times,serif" font-size="14.00">Shared with</text>
</g>
</g>
</svg>
