<?xml version="1.0" encoding="UTF-8" standalone="no"?>
<!DOCTYPE svg PUBLIC "-//W3C//DTD SVG 1.1//EN"
 "http://www.w3.org/Graphics/SVG/1.1/DTD/svg11.dtd">
<!-- Generated by graphviz version 2.43.0 (0)
 -->
<!-- Title: %3 Pages: 1 -->
<svg width="617pt" height="786pt"
 viewBox="0.00 0.00 617.04 786.35" xmlns="http://www.w3.org/2000/svg" xmlns:xlink="http://www.w3.org/1999/xlink">
<g id="graph0" class="graph" transform="scale(1 1) rotate(0) translate(4 782.35)">
<title>%3</title>
<polygon fill="white" stroke="transparent" points="-4,4 -4,-782.35 613.04,-782.35 613.04,4 -4,4"/>
<!-- 0 -->
<g id="node1" class="node">
<title>0</title>
<ellipse fill="none" stroke="black" cx="198.04" cy="-632.36" rx="145.98" ry="145.98"/>
<text text-anchor="middle" x="198.04" y="-636.16" font-family="Times,serif" font-size="14.00">DISCOVERY</text>
<text text-anchor="middle" x="198.04" y="-621.16" font-family="Times,serif" font-size="14.00">Polonium and Radium Discovery</text>
</g>
<!-- 1 -->
<g id="node2" class="node">
<title>1</title>
<ellipse fill="none" stroke="black" cx="60.04" cy="-359.15" rx="60.09" ry="60.09"/>
<text text-anchor="middle" x="60.04" y="-362.95" font-family="Times,serif" font-size="14.00">PERSON</text>
<text text-anchor="middle" x="60.04" y="-347.95" font-family="Times,serif" font-size="14.00">Marie Curie</text>
</g>
<!-- 0&#45;&gt;1 -->
<g id="edge1" class="edge">
<title>0&#45;&gt;1</title>
<path fill="none" stroke="black" d="M104.67,-519.85C94.05,-503.32 84.41,-485.92 77.04,-468.38 71.91,-456.15 68.32,-442.55 65.8,-429.24"/>
<polygon fill="black" stroke="black" points="69.21,-428.41 64.08,-419.14 62.31,-429.59 69.21,-428.41"/>
<text text-anchor="middle" x="134.54" y="-457.18" font-family="Times,serif" font-size="14.00">DISCOVERED</text>
<text text-anchor="middle" x="134.54" y="-442.18" font-family="Times,serif" font-size="14.00">Made Discovery</text>
</g>
<!-- 2 -->
<g id="node3" class="node">
<title>2</title>
<ellipse fill="none" stroke="black" cx="217.04" cy="-359.15" rx="61.44" ry="61.44"/>
<text text-anchor="middle" x="217.04" y="-362.95" font-family="Times,serif" font-size="14.00">PERSON</text>
<text text-anchor="middle" x="217.04" y="-347.95" font-family="Times,serif" font-size="14.00">Pierre Curie</text>
</g>
<!-- 0&#45;&gt;2 -->
<g id="edge2" class="edge">
<title>0&#45;&gt;2</title>
<path fill="none" stroke="black" d="M195.34,-486.26C196.07,-470.07 197.25,-453.85 199.04,-438.38 199.4,-435.29 199.83,-432.15 200.33,-428.99"/>
<polygon fill="black" stroke="black" points="203.82,-429.3 202.07,-418.85 196.92,-428.11 203.82,-429.3"/>
<text text-anchor="middle" x="321.04" y="-457.18" font-family="Times,serif" font-size="14.00">INTERPERSONALRELATIONSHIP</text>
<text text-anchor="middle" x="321.04" y="-442.18" font-family="Times,serif" font-size="14.00">Married to</text>
</g>
<!-- 3 -->
<g id="node4" class="node">
<title>3</title>
<ellipse fill="none" stroke="black" cx="234.04" cy="-115.97" rx="115.93" ry="115.93"/>
<text text-anchor="middle" x="234.04" y="-119.77" font-family="Times,serif" font-size="14.00">AWARD</text>
<text text-anchor="middle" x="234.04" y="-104.77" font-family="Times,serif" font-size="14.00">Nobel Prize in Chemistry</text>
</g>
<!-- 0&#45;&gt;3 -->
<g id="edge3" class="edge">
<title>0&#45;&gt;3</title>
<path fill="none" stroke="black" d="M332.25,-574.29C375.61,-548.65 418.73,-513.74 443.04,-468.38 494.42,-372.5 409.4,-265.49 332.87,-195.03"/>
<polygon fill="black" stroke="black" points="334.78,-192.04 325.02,-187.9 330.07,-197.22 334.78,-192.04"/>
<text text-anchor="middle" x="533.54" y="-362.95" font-family="Times,serif" font-size="14.00">AWARDED</text>
<text text-anchor="middle" x="533.54" y="-347.95" font-family="Times,serif" font-size="14.00">Awarded Nobel Prize</text>
</g>
<!-- 1&#45;&gt;3 -->
<g id="edge4" class="edge">
<title>1&#45;&gt;3</title>
<path fill="none" stroke="black" d="M55.19,-299.04C56.07,-282.39 59.28,-264.78 67.04,-249.93 80.92,-223.37 102.69,-200.33 125.99,-181.22"/>
<polygon fill="black" stroke="black" points="128.29,-183.86 133.94,-174.9 123.93,-178.38 128.29,-183.86"/>
<text text-anchor="middle" x="142.54" y="-268.73" font-family="Times,serif" font-size="14.00">AWARDED</text>
<text text-anchor="middle" x="142.54" y="-253.73" font-family="Times,serif" font-size="14.00">Awarded Nobel Prize</text>
</g>
<!-- 2&#45;&gt;3 -->
<g id="edge5" class="edge">
<title>2&#45;&gt;3</title>
<path fill="none" stroke="black" d="M221.29,-297.91C222.5,-280.8 223.86,-261.51 225.23,-242.06"/>
<polygon fill="black" stroke="black" points="228.73,-242.11 225.94,-231.89 221.75,-241.62 228.73,-242.11"/>
<text text-anchor="middle" x="299.54" y="-268.73" font-family="Times,serif" font-size="14.00">AWARDED</text>
<text text-anchor="middle" x="299.54" y="-253.73" font-family="Times,serif" font-size="14.00">Awarded Nobel Prize</text>
</g>
</g>
</svg>
