<?xml version="1.0" encoding="UTF-8" standalone="no"?>
<!DOCTYPE svg PUBLIC "-//W3C//DTD SVG 1.1//EN"
 "http://www.w3.org/Graphics/SVG/1.1/DTD/svg11.dtd">
<!-- Generated by graphviz version 2.43.0 (0)
 -->
<!-- Title: %3 Pages: 1 -->
<svg width="809pt" height="331pt"
 viewBox="0.00 0.00 808.87 330.66" xmlns="http://www.w3.org/2000/svg" xmlns:xlink="http://www.w3.org/1999/xlink">
<g id="graph0" class="graph" transform="scale(1 1) rotate(0) translate(4 326.66)">
<title>%3</title>
<polygon fill="white" stroke="transparent" points="-4,4 -4,-326.66 804.87,-326.66 804.87,4 -4,4"/>
<!-- 0 -->
<g id="node1" class="node">
<title>0</title>
<ellipse fill="none" stroke="black" cx="336.87" cy="-262.61" rx="60.09" ry="60.09"/>
<text text-anchor="middle" x="336.87" y="-266.41" font-family="Times,serif" font-size="14.00">PERSON</text>
<text text-anchor="middle" x="336.87" y="-251.41" font-family="Times,serif" font-size="14.00">Marie Curie</text>
</g>
<!-- 1 -->
<g id="node2" class="node">
<title>1</title>
<ellipse fill="none" stroke="black" cx="58.87" cy="-68.28" rx="58.73" ry="58.73"/>
<text text-anchor="middle" x="58.87" y="-72.08" font-family="Times,serif" font-size="14.00">AWARD</text>
<text text-anchor="middle" x="58.87" y="-57.08" font-family="Times,serif" font-size="14.00">Nobel Prize</text>
</g>
<!-- 0&#45;&gt;1 -->
<g id="edge1" class="edge">
<title>0&#45;&gt;1</title>
<path fill="none" stroke="black" d="M277.91,-249.21C235.04,-237.91 177.48,-217.81 135.87,-184.57 117.44,-169.85 101.83,-149.51 89.59,-130"/>
<polygon fill="black" stroke="black" points="92.56,-128.15 84.38,-121.42 86.58,-131.78 92.56,-128.15"/>
<text text-anchor="middle" x="174.37" y="-173.37" font-family="Times,serif" font-size="14.00">AWARDED</text>
<text text-anchor="middle" x="174.37" y="-158.37" font-family="Times,serif" font-size="14.00">won</text>
</g>
<!-- 2 -->
<g id="node3" class="node">
<title>2</title>
<ellipse fill="none" stroke="black" cx="196.87" cy="-68.28" rx="61.44" ry="61.44"/>
<text text-anchor="middle" x="196.87" y="-72.08" font-family="Times,serif" font-size="14.00">DISCOVERY</text>
<text text-anchor="middle" x="196.87" y="-57.08" font-family="Times,serif" font-size="14.00">Radium</text>
</g>
<!-- 0&#45;&gt;2 -->
<g id="edge2" class="edge">
<title>0&#45;&gt;2</title>
<path fill="none" stroke="black" d="M284.42,-232.86C265.53,-220.23 245.52,-203.85 231.87,-184.57 222.25,-171 215.24,-154.74 210.13,-138.77"/>
<polygon fill="black" stroke="black" points="213.4,-137.48 207.19,-128.89 206.69,-139.47 213.4,-137.48"/>
<text text-anchor="middle" x="282.37" y="-173.37" font-family="Times,serif" font-size="14.00">DISCOVERED</text>
<text text-anchor="middle" x="282.37" y="-158.37" font-family="Times,serif" font-size="14.00">discovered</text>
</g>
<!-- 3 -->
<g id="node4" class="node">
<title>3</title>
<ellipse fill="none" stroke="black" cx="336.87" cy="-68.28" rx="61.44" ry="61.44"/>
<text text-anchor="middle" x="336.87" y="-72.08" font-family="Times,serif" font-size="14.00">DISCOVERY</text>
<text text-anchor="middle" x="336.87" y="-57.08" font-family="Times,serif" font-size="14.00">Polonium</text>
</g>
<!-- 0&#45;&gt;3 -->
<g id="edge3" class="edge">
<title>0&#45;&gt;3</title>
<path fill="none" stroke="black" d="M336.87,-202.34C336.87,-182.61 336.87,-160.43 336.87,-139.92"/>
<polygon fill="black" stroke="black" points="340.37,-139.69 336.87,-129.69 333.37,-139.69 340.37,-139.69"/>
<text text-anchor="middle" x="387.37" y="-173.37" font-family="Times,serif" font-size="14.00">DISCOVERED</text>
<text text-anchor="middle" x="387.37" y="-158.37" font-family="Times,serif" font-size="14.00">discovered</text>
</g>
<!-- 4 -->
<g id="node5" class="node">
<title>4</title>
<ellipse fill="none" stroke="black" cx="484.87" cy="-68.28" rx="68.07" ry="68.07"/>
<text text-anchor="middle" x="484.87" y="-72.08" font-family="Times,serif" font-size="14.00">LOCATION</text>
<text text-anchor="middle" x="484.87" y="-57.08" font-family="Times,serif" font-size="14.00">United States</text>
</g>
<!-- 0&#45;&gt;4 -->
<g id="edge4" class="edge">
<title>0&#45;&gt;4</title>
<path fill="none" stroke="black" d="M388.96,-232.22C407.7,-219.56 427.68,-203.33 441.87,-184.57 451.01,-172.48 458.39,-158.23 464.27,-143.96"/>
<polygon fill="black" stroke="black" points="467.55,-145.18 467.93,-134.59 461.03,-142.63 467.55,-145.18"/>
<text text-anchor="middle" x="490.37" y="-173.37" font-family="Times,serif" font-size="14.00">VISITED</text>
<text text-anchor="middle" x="490.37" y="-158.37" font-family="Times,serif" font-size="14.00">visited</text>
</g>
<!-- 5 -->
<g id="node6" class="node">
<title>5</title>
<ellipse fill="none" stroke="black" cx="626.87" cy="-68.28" rx="55.17" ry="55.17"/>
<text text-anchor="middle" x="626.87" y="-72.08" font-family="Times,serif" font-size="14.00">LOCATION</text>
<text text-anchor="middle" x="626.87" y="-57.08" font-family="Times,serif" font-size="14.00">Paris</text>
</g>
<!-- 0&#45;&gt;5 -->
<g id="edge5" class="edge">
<title>0&#45;&gt;5</title>
<path fill="none" stroke="black" d="M394.58,-245.57C433.65,-232.95 485.18,-212.76 524.87,-184.57 549.02,-167.41 571.39,-143.48 588.98,-121.88"/>
<polygon fill="black" stroke="black" points="591.74,-124.04 595.25,-114.04 586.27,-119.67 591.74,-124.04"/>
<text text-anchor="middle" x="678.87" y="-173.37" font-family="Times,serif" font-size="14.00">INTERPERSONALRELATIONSHIP</text>
<text text-anchor="middle" x="678.87" y="-158.37" font-family="Times,serif" font-size="14.00">spent most of her time</text>
</g>
</g>
</svg>
