<?xml version="1.0" encoding="UTF-8" standalone="no"?>
<!DOCTYPE svg PUBLIC "-//W3C//DTD SVG 1.1//EN"
 "http://www.w3.org/Graphics/SVG/1.1/DTD/svg11.dtd">
<!-- Generated by graphviz version 2.43.0 (0)
 -->
<!-- Title: %3 Pages: 1 -->
<svg width="1089pt" height="331pt"
 viewBox="0.00 0.00 1088.87 330.66" xmlns="http://www.w3.org/2000/svg" xmlns:xlink="http://www.w3.org/1999/xlink">
<g id="graph0" class="graph" transform="scale(1 1) rotate(0) translate(4 326.66)">
<title>%3</title>
<polygon fill="white" stroke="transparent" points="-4,4 -4,-326.66 1084.87,-326.66 1084.87,4 -4,4"/>
<!-- 0 -->
<g id="node1" class="node">
<title>0</title>
<ellipse fill="none" stroke="black" cx="410.87" cy="-262.61" rx="60.09" ry="60.09"/>
<text text-anchor="middle" x="410.87" y="-266.41" font-family="Times,serif" font-size="14.00">PERSON</text>
<text text-anchor="middle" x="410.87" y="-251.41" font-family="Times,serif" font-size="14.00">Marie Curie</text>
</g>
<!-- 1 -->
<g id="node2" class="node">
<title>1</title>
<ellipse fill="none" stroke="black" cx="58.87" cy="-68.28" rx="58.73" ry="58.73"/>
<text text-anchor="middle" x="58.87" y="-72.08" font-family="Times,serif" font-size="14.00">AWARD</text>
<text text-anchor="middle" x="58.87" y="-57.08" font-family="Times,serif" font-size="14.00">Nobel Prize</text>
</g>
<!-- 0&#45;&gt;1 -->
<g id="edge1" class="edge">
<title>0&#45;&gt;1</title>
<path fill="none" stroke="black" d="M351.23,-255.07C294.51,-246.47 208.87,-227.12 146.87,-184.57 125.61,-169.98 107.28,-148.62 92.93,-128.24"/>
<polygon fill="black" stroke="black" points="95.76,-126.18 87.23,-119.89 89.98,-130.12 95.76,-126.18"/>
<text text-anchor="middle" x="185.37" y="-173.37" font-family="Times,serif" font-size="14.00">AWARDED</text>
<text text-anchor="middle" x="185.37" y="-158.37" font-family="Times,serif" font-size="14.00">won</text>
</g>
<!-- 2 -->
<g id="node3" class="node">
<title>2</title>
<ellipse fill="none" stroke="black" cx="196.87" cy="-68.28" rx="61.44" ry="61.44"/>
<text text-anchor="middle" x="196.87" y="-72.08" font-family="Times,serif" font-size="14.00">DISCOVERY</text>
<text text-anchor="middle" x="196.87" y="-57.08" font-family="Times,serif" font-size="14.00">Radium</text>
</g>
<!-- 0&#45;&gt;2 -->
<g id="edge2" class="edge">
<title>0&#45;&gt;2</title>
<path fill="none" stroke="black" d="M353.1,-245.58C318.83,-233.56 276.6,-214.04 247.87,-184.57 234.84,-171.22 224.84,-153.98 217.29,-136.92"/>
<polygon fill="black" stroke="black" points="220.43,-135.37 213.34,-127.49 213.97,-138.07 220.43,-135.37"/>
<text text-anchor="middle" x="298.37" y="-173.37" font-family="Times,serif" font-size="14.00">DISCOVERED</text>
<text text-anchor="middle" x="298.37" y="-158.37" font-family="Times,serif" font-size="14.00">discovered</text>
</g>
<!-- 3 -->
<g id="node4" class="node">
<title>3</title>
<ellipse fill="none" stroke="black" cx="336.87" cy="-68.28" rx="61.44" ry="61.44"/>
<text text-anchor="middle" x="336.87" y="-72.08" font-family="Times,serif" font-size="14.00">DISCOVERY</text>
<text text-anchor="middle" x="336.87" y="-57.08" font-family="Times,serif" font-size="14.00">Polonium</text>
</g>
<!-- 0&#45;&gt;3 -->
<g id="edge3" class="edge">
<title>0&#45;&gt;3</title>
<path fill="none" stroke="black" d="M376.53,-213.28C371.03,-204.05 365.84,-194.25 361.87,-184.57 355.99,-170.27 351.41,-154.39 347.86,-139.09"/>
<polygon fill="black" stroke="black" points="351.24,-138.17 345.68,-129.15 344.4,-139.67 351.24,-138.17"/>
<text text-anchor="middle" x="412.37" y="-173.37" font-family="Times,serif" font-size="14.00">DISCOVERED</text>
<text text-anchor="middle" x="412.37" y="-158.37" font-family="Times,serif" font-size="14.00">discovered</text>
</g>
<!-- 4 -->
<g id="node5" class="node">
<title>4</title>
<ellipse fill="none" stroke="black" cx="484.87" cy="-68.28" rx="68.07" ry="68.07"/>
<text text-anchor="middle" x="484.87" y="-72.08" font-family="Times,serif" font-size="14.00">LOCATION</text>
<text text-anchor="middle" x="484.87" y="-57.08" font-family="Times,serif" font-size="14.00">United States</text>
</g>
<!-- 0&#45;&gt;4 -->
<g id="edge4" class="edge">
<title>0&#45;&gt;4</title>
<path fill="none" stroke="black" d="M447.04,-214.4C453.05,-204.91 458.68,-194.71 462.87,-184.57 467.85,-172.49 471.72,-159.22 474.71,-146.12"/>
<polygon fill="black" stroke="black" points="478.18,-146.67 476.84,-136.16 471.33,-145.21 478.18,-146.67"/>
<text text-anchor="middle" x="503.37" y="-173.37" font-family="Times,serif" font-size="14.00">VISITED</text>
<text text-anchor="middle" x="503.37" y="-158.37" font-family="Times,serif" font-size="14.00">visited</text>
</g>
<!-- 5 -->
<g id="node6" class="node">
<title>5</title>
<ellipse fill="none" stroke="black" cx="626.87" cy="-68.28" rx="55.17" ry="55.17"/>
<text text-anchor="middle" x="626.87" y="-72.08" font-family="Times,serif" font-size="14.00">LOCATION</text>
<text text-anchor="middle" x="626.87" y="-57.08" font-family="Times,serif" font-size="14.00">Paris</text>
</g>
<!-- 0&#45;&gt;5 -->
<g id="edge5" class="edge">
<title>0&#45;&gt;5</title>
<path fill="none" stroke="black" d="M464.51,-234.88C488.36,-221.58 515.95,-204.16 537.87,-184.57 557.75,-166.8 576.36,-144.1 591.36,-123.56"/>
<polygon fill="black" stroke="black" points="594.37,-125.37 597.35,-115.21 588.68,-121.29 594.37,-125.37"/>
<text text-anchor="middle" x="687.87" y="-173.37" font-family="Times,serif" font-size="14.00">INTERPERSONALRELATIONSHIP</text>
<text text-anchor="middle" x="687.87" y="-158.37" font-family="Times,serif" font-size="14.00">spent most of her time</text>
</g>
<!-- 6 -->
<g id="node7" class="node">
<title>6</title>
<ellipse fill="none" stroke="black" cx="864.87" cy="-68.28" rx="55.17" ry="55.17"/>
<text text-anchor="middle" x="864.87" y="-72.08" font-family="Times,serif" font-size="14.00">LOCATION</text>
<text text-anchor="middle" x="864.87" y="-57.08" font-family="Times,serif" font-size="14.00">Poland</text>
</g>
<!-- 0&#45;&gt;6 -->
<g id="edge6" class="edge">
<title>0&#45;&gt;6</title>
<path fill="none" stroke="black" d="M470.76,-256.94C569.7,-248.14 761.59,-226.12 813.87,-184.57 830.5,-171.35 841.86,-151.57 849.54,-132.11"/>
<polygon fill="black" stroke="black" points="852.87,-133.2 853.03,-122.61 846.3,-130.79 852.87,-133.2"/>
<text text-anchor="middle" x="958.87" y="-173.37" font-family="Times,serif" font-size="14.00">INTERPERSONALRELATIONSHIP</text>
<text text-anchor="middle" x="958.87" y="-158.37" font-family="Times,serif" font-size="14.00">born in</text>
</g>
</g>
</svg>
