<?xml version="1.0" encoding="UTF-8" standalone="no"?>
<!DOCTYPE svg PUBLIC "-//W3C//DTD SVG 1.1//EN"
 "http://www.w3.org/Graphics/SVG/1.1/DTD/svg11.dtd">
<!-- Generated by graphviz version 2.43.0 (0)
 -->
<!-- Title: %3 Pages: 1 -->
<svg width="828pt" height="616pt"
 viewBox="0.00 0.00 827.75 615.64" xmlns="http://www.w3.org/2000/svg" xmlns:xlink="http://www.w3.org/1999/xlink">
<g id="graph0" class="graph" transform="scale(1 1) rotate(0) translate(4 611.64)">
<title>%3</title>
<polygon fill="white" stroke="transparent" points="-4,4 -4,-611.64 823.75,-611.64 823.75,4 -4,4"/>
<!-- 0 -->
<g id="node1" class="node">
<title>0</title>
<ellipse fill="none" stroke="black" cx="411.87" cy="-528.76" rx="60.09" ry="60.09"/>
<text text-anchor="middle" x="411.87" y="-532.56" font-family="Times,serif" font-size="14.00">PERSON</text>
<text text-anchor="middle" x="411.87" y="-517.56" font-family="Times,serif" font-size="14.00">Marie Curie</text>
</g>
<!-- 4 -->
<g id="node5" class="node">
<title>4</title>
<ellipse fill="none" stroke="black" cx="595.87" cy="-280.27" rx="103.71" ry="103.71"/>
<text text-anchor="middle" x="595.87" y="-284.07" font-family="Times,serif" font-size="14.00">AWARD</text>
<text text-anchor="middle" x="595.87" y="-269.07" font-family="Times,serif" font-size="14.00">Nobel Prize in Physics</text>
</g>
<!-- 0&#45;&gt;4 -->
<g id="edge1" class="edge">
<title>0&#45;&gt;4</title>
<path fill="none" stroke="black" d="M447.35,-480.23C470.17,-449.67 500.55,-408.96 527.9,-372.33"/>
<polygon fill="black" stroke="black" points="530.87,-374.21 534.04,-364.1 525.26,-370.02 530.87,-374.21"/>
<text text-anchor="middle" x="542.37" y="-420.68" font-family="Times,serif" font-size="14.00">AWARDED</text>
<text text-anchor="middle" x="542.37" y="-405.68" font-family="Times,serif" font-size="14.00">awarded</text>
</g>
<!-- 5 -->
<g id="node6" class="node">
<title>5</title>
<ellipse fill="none" stroke="black" cx="427.87" cy="-55.33" rx="55.17" ry="55.17"/>
<text text-anchor="middle" x="427.87" y="-59.13" font-family="Times,serif" font-size="14.00">LOCATION</text>
<text text-anchor="middle" x="427.87" y="-44.13" font-family="Times,serif" font-size="14.00">1903</text>
</g>
<!-- 0&#45;&gt;5 -->
<g id="edge4" class="edge">
<title>0&#45;&gt;5</title>
<path fill="none" stroke="black" d="M412.81,-468.41C414.04,-398.59 416.58,-279.17 420.87,-176.67 421.63,-158.58 422.68,-138.98 423.73,-120.95"/>
<polygon fill="black" stroke="black" points="427.23,-121.02 424.33,-110.83 420.24,-120.6 427.23,-121.02"/>
<text text-anchor="middle" x="451.87" y="-284.07" font-family="Times,serif" font-size="14.00">VISITED</text>
<text text-anchor="middle" x="451.87" y="-269.07" font-family="Times,serif" font-size="14.00">awarded</text>
</g>
<!-- 6 -->
<g id="node7" class="node">
<title>6</title>
<ellipse fill="none" stroke="black" cx="194.87" cy="-280.27" rx="55.17" ry="55.17"/>
<text text-anchor="middle" x="194.87" y="-284.07" font-family="Times,serif" font-size="14.00">LOCATION</text>
<text text-anchor="middle" x="194.87" y="-269.07" font-family="Times,serif" font-size="14.00">1911</text>
</g>
<!-- 0&#45;&gt;6 -->
<g id="edge6" class="edge">
<title>0&#45;&gt;6</title>
<path fill="none" stroke="black" d="M375.16,-481.01C362.95,-465.41 349.3,-447.92 336.87,-431.88 326.59,-418.59 324.91,-414.55 313.87,-401.88 291.31,-375.97 264.57,-348.6 242.15,-326.49"/>
<polygon fill="black" stroke="black" points="244.32,-323.71 234.73,-319.2 239.42,-328.71 244.32,-323.71"/>
<text text-anchor="middle" x="367.37" y="-420.68" font-family="Times,serif" font-size="14.00">VISITED</text>
<text text-anchor="middle" x="367.37" y="-405.68" font-family="Times,serif" font-size="14.00">scandal</text>
</g>
<!-- 1 -->
<g id="node2" class="node">
<title>1</title>
<ellipse fill="none" stroke="black" cx="582.87" cy="-528.76" rx="61.44" ry="61.44"/>
<text text-anchor="middle" x="582.87" y="-532.56" font-family="Times,serif" font-size="14.00">PERSON</text>
<text text-anchor="middle" x="582.87" y="-517.56" font-family="Times,serif" font-size="14.00">Pierre Curie</text>
</g>
<!-- 1&#45;&gt;4 -->
<g id="edge2" class="edge">
<title>1&#45;&gt;4</title>
<path fill="none" stroke="black" d="M586.05,-467.46C587.22,-445.32 588.59,-419.47 589.92,-394.2"/>
<polygon fill="black" stroke="black" points="593.41,-394.35 590.45,-384.18 586.42,-393.98 593.41,-394.35"/>
<text text-anchor="middle" x="627.37" y="-420.68" font-family="Times,serif" font-size="14.00">AWARDED</text>
<text text-anchor="middle" x="627.37" y="-405.68" font-family="Times,serif" font-size="14.00">awarded</text>
</g>
<!-- 2 -->
<g id="node3" class="node">
<title>2</title>
<ellipse fill="none" stroke="black" cx="740.87" cy="-528.76" rx="78.76" ry="78.76"/>
<text text-anchor="middle" x="740.87" y="-532.56" font-family="Times,serif" font-size="14.00">PERSON</text>
<text text-anchor="middle" x="740.87" y="-517.56" font-family="Times,serif" font-size="14.00">Henri Becquerel</text>
</g>
<!-- 2&#45;&gt;4 -->
<g id="edge3" class="edge">
<title>2&#45;&gt;4</title>
<path fill="none" stroke="black" d="M703.01,-459.55C692.42,-440.78 680.82,-420.47 669.87,-401.88 665.16,-393.86 660.22,-385.58 655.22,-377.29"/>
<polygon fill="black" stroke="black" points="658.17,-375.4 650.01,-368.65 652.18,-379.02 658.17,-375.4"/>
<text text-anchor="middle" x="723.37" y="-420.68" font-family="Times,serif" font-size="14.00">AWARDED</text>
<text text-anchor="middle" x="723.37" y="-405.68" font-family="Times,serif" font-size="14.00">awarded</text>
</g>
<!-- 3 -->
<g id="node4" class="node">
<title>3</title>
<ellipse fill="none" stroke="black" cx="68.87" cy="-528.76" rx="68.75" ry="68.75"/>
<text text-anchor="middle" x="68.87" y="-532.56" font-family="Times,serif" font-size="14.00">PERSON</text>
<text text-anchor="middle" x="68.87" y="-517.56" font-family="Times,serif" font-size="14.00">Paul Langevin</text>
</g>
<!-- 3&#45;&gt;6 -->
<g id="edge7" class="edge">
<title>3&#45;&gt;6</title>
<path fill="none" stroke="black" d="M59.8,-460.41C59.68,-440.88 62.11,-419.95 69.87,-401.88 84.54,-367.73 114.06,-338.5 140.73,-317.38"/>
<polygon fill="black" stroke="black" points="143.11,-319.97 148.89,-311.09 138.84,-314.42 143.11,-319.97"/>
<text text-anchor="middle" x="191.87" y="-420.68" font-family="Times,serif" font-size="14.00">INTERPERSONALRELATIONSHIP</text>
<text text-anchor="middle" x="191.87" y="-405.68" font-family="Times,serif" font-size="14.00">affair</text>
</g>
<!-- 4&#45;&gt;5 -->
<g id="edge5" class="edge">
<title>4&#45;&gt;5</title>
<path fill="none" stroke="black" d="M533.79,-196.89C511.44,-167.23 486.87,-134.62 467.02,-108.28"/>
<polygon fill="black" stroke="black" points="469.56,-105.84 460.75,-99.96 463.97,-110.05 469.56,-105.84"/>
<text text-anchor="middle" x="636.87" y="-147.47" font-family="Times,serif" font-size="14.00">DISCOVERED</text>
<text text-anchor="middle" x="636.87" y="-132.47" font-family="Times,serif" font-size="14.00">first Nobel to be awarded to a woman</text>
</g>
</g>
</svg>
